<?xml version="1.0" standalone="no"?><!DOCTYPE svg PUBLIC "-//W3C//DTD SVG 1.1//EN" "http://www.w3.org/Graphics/SVG/1.1/DTD/svg11.dtd"><svg t="1618825775834" class="icon" viewBox="0 0 1025 1024" version="1.1" xmlns="http://www.w3.org/2000/svg" p-id="2039" xmlns:xlink="http://www.w3.org/1999/xlink" width="128.125" height="128"><defs><style type="text/css"></style></defs><path d="M972.891411 372.736l-521.024 514.624c-86.272 85.248-226.304 85.248-312.576 0-86.336-85.312-86.336-223.488 0-308.736l468.928-463.232c57.536-56.832 150.848-56.832 208.448 0 57.536 56.832 57.536 148.992 0 205.824l-468.928 463.232c-28.736 28.416-75.392 28.416-104.192 0-28.8-28.416-28.8-74.496 0-102.912l416.832-411.712L608.219411 218.368 191.387411 630.08c-57.536 56.768-57.536 148.992 0 205.824 57.536 56.832 150.848 56.832 208.384 0l468.928-463.168c86.272-85.312 86.272-223.552 0-308.736-86.336-85.248-226.304-85.248-312.64 0L61.147411 552.832l0 0c-89.92 114.176-80.192 281.024 26.048 385.984 106.24 104.896 273.344 112.768 388.928 23.936l0 0 548.864-538.56L972.891411 372.736 972.891411 372.736 972.891411 372.736z" p-id="2040" fill="#5c5f66"></path></svg>